<svg width="26" height="18" viewBox="0 0 26 18" fill="none" xmlns="http://www.w3.org/2000/svg">
<path d="M12.942 18C9.51786 18 6.09375 18 2.66964 18C0.89375 18 0 17.1103 0 15.365C0 11.1217 0 6.87833 0 2.63498C0 0.889734 0.905357 0 2.66964 0C9.55268 0 16.4357 0 23.3304 0C25.1062 0 26 0.889734 26 2.63498C26 6.87833 26 11.1103 26 15.3536C26 17.0989 25.0946 17.9886 23.3304 17.9886C19.8714 18 16.4009 18 12.942 18ZM2.69286 1.53992C2.91339 1.77947 3.05268 1.92776 3.20357 2.07605C6.14018 4.97338 9.07679 7.85932 12.0018 10.7567C12.8375 11.5779 13.1625 11.5779 14.0098 10.7452C16.7027 8.09886 19.3839 5.44106 22.0768 2.79468C22.4598 2.40684 22.8429 2.01901 23.3187 1.55133C16.4009 1.53992 9.63393 1.53992 2.69286 1.53992ZM2.80893 16.4487C9.61071 16.4487 16.4009 16.4487 23.1911 16.4487C21.0321 14.3498 18.908 12.2738 16.7259 10.1407C16.1571 10.711 15.5652 11.327 14.95 11.9316C13.6964 13.1749 12.3152 13.1749 11.05 11.9202C10.4232 11.3042 9.83125 10.6654 9.30893 10.1293C7.09196 12.2966 4.95625 14.3612 2.80893 16.4487ZM7.92768 9.11407C5.74554 6.98099 3.59821 4.89354 1.56696 2.89734C1.56696 6.92395 1.56696 11.1217 1.56696 15.3194C3.72589 13.2091 5.86161 11.1331 7.92768 9.11407ZM24.4562 2.80608C22.3321 4.87072 20.1848 6.95817 18.0723 9.01141C20.1848 11.076 22.3321 13.1749 24.4562 15.2509C24.4562 11.0989 24.4562 6.90114 24.4562 2.80608Z" fill="#55C477"/>
</svg>
